<?xml version="1.0" encoding="UTF-8"?>
<svg id="Layer_2" data-name="Layer 2" xmlns="http://www.w3.org/2000/svg" viewBox="0 0 150.97 146.26">
  <defs>
    <style>
      .cls-1 {
        fill: #19d5d9;
      }
    </style>
  </defs>
  <g id="Layer_1-2" data-name="Layer 1">
    <path class="cls-1" d="M146.45,37.26C137.05,9.33,112.98,0,74.82,0,24.49,0,0,16.22,0,69.93c0,8.85.56,16.85,1.74,24.03,1.12,6.89,2.81,13.02,5.11,18.45,9.99,23.7,31.5,33.85,67.98,33.85,40.49,0,63.21-12.42,71.93-41.88,2.86-9.62,4.21-21.05,4.21-34.45s-1.51-23.77-4.51-32.67h0ZM116.21,77.61l-57.8,35.53c-4.64,2.86-10.93-.16-10.93-5.24V36.83c0-5.08,6.29-8.1,10.93-5.24l57.8,35.53c4.09,2.51,4.09,7.97,0,10.49Z"/>
  </g>
</svg>